<svg width="1125" height="706" viewBox="0 0 1125 706" fill="none" xmlns="http://www.w3.org/2000/svg">
<path d="M93.856 382.96C112.288 382.96 121.024 373.744 121.024 362.992C121.024 338.32 81.184 347.632 81.184 333.328C81.184 328.24 85.408 324.208 95.776 324.208C101.632 324.208 108.256 325.936 114.304 329.488L118.24 319.792C112.384 315.952 103.936 313.84 95.872 313.84C77.44 313.84 68.8 323.056 68.8 333.904C68.8 358.864 108.736 349.36 108.736 363.856C108.736 368.848 104.32 372.592 93.856 372.592C85.6 372.592 77.056 369.52 71.68 365.2L67.36 374.896C72.928 379.696 83.392 382.96 93.856 382.96ZM138.295 322.288C142.807 322.288 145.975 319.024 145.975 314.8C145.975 310.864 142.711 307.888 138.295 307.888C133.879 307.888 130.615 311.056 130.615 315.088C130.615 319.12 133.879 322.288 138.295 322.288ZM132.247 382H144.247V330.736H132.247V382ZM199.453 330.736V337.552C195.229 332.464 188.893 330.16 181.693 330.16C167.005 330.16 155.773 339.952 155.773 354.832C155.773 369.712 167.005 379.696 181.693 379.696C188.605 379.696 194.653 377.488 198.877 372.88V375.568C198.877 385.936 193.885 391.12 182.557 391.12C175.453 391.12 168.157 388.72 163.645 384.976L158.269 394C164.125 398.8 173.629 401.296 183.229 401.296C201.181 401.296 210.877 392.848 210.877 374.224V330.736H199.453ZM183.517 369.52C174.397 369.52 167.869 363.568 167.869 354.832C167.869 346.192 174.397 340.336 183.517 340.336C192.541 340.336 199.069 346.192 199.069 354.832C199.069 363.568 192.541 369.52 183.517 369.52ZM255.741 330.16C248.253 330.16 242.013 332.656 238.077 337.36V330.736H226.653V382H238.653V356.08C238.653 345.808 244.413 340.624 252.957 340.624C260.637 340.624 265.149 345.04 265.149 354.16V382H277.149V352.624C277.149 337.168 268.029 330.16 255.741 330.16ZM320.055 382H332.535V314.8H320.055V382ZM378.648 330.16C371.16 330.16 364.92 332.656 360.984 337.36V330.736H349.56V382H361.56V356.08C361.56 345.808 367.32 340.624 375.864 340.624C383.544 340.624 388.056 345.04 388.056 354.16V382H400.056V352.624C400.056 337.168 390.936 330.16 378.648 330.16Z" fill="white"/>
<path d="M1066.61 565.515H760.505V566.836H1066.61V565.515Z" fill="#3F3D56"/>
<path d="M1009.48 341.011C1010.07 341.703 1010.51 342.511 1010.76 343.383C1011.02 344.256 1011.09 345.172 1010.97 346.073C1010.85 346.974 1010.54 347.84 1010.07 348.615C1009.59 349.39 1008.96 350.056 1008.21 350.571L976.531 372.321L962.583 381.62C961.79 382.148 960.83 382.363 959.888 382.222C958.946 382.081 958.09 381.595 957.487 380.858V380.858C957.136 380.428 956.881 379.927 956.742 379.39C956.603 378.852 956.583 378.291 956.682 377.745C956.781 377.198 956.997 376.68 957.316 376.226C957.635 375.771 958.049 375.392 958.529 375.113L972.04 367.268L995.62 344.81L980.462 328.529L991.687 320.107L1009.48 341.011Z" fill="#D5CBCC"/>
<path d="M934.986 545.802H927.236L922.634 481.799L942.284 481.237L934.986 545.802Z" fill="#D5CBCC"/>
<path d="M935.547 566.574C933.481 567.517 931.75 559.878 930.009 561.59C925.134 566.381 917.668 567.423 911.161 565.333L913.439 565.307C913.046 565.181 912.683 564.976 912.372 564.706C912.061 564.435 911.808 564.104 911.628 563.733C911.449 563.361 911.346 562.957 911.327 562.545C911.308 562.133 911.373 561.722 911.518 561.336V561.336C911.692 560.874 911.975 560.461 912.343 560.132C912.711 559.804 913.154 559.57 913.633 559.45L918.817 558.154L926.958 543.838L935.269 543.276C937.122 545.638 938.415 548.389 939.051 551.323C939.687 554.257 939.649 557.297 938.941 560.214C938.184 563.291 937.02 565.902 935.547 566.574Z" fill="#2F2E41"/>
<path d="M986.584 545.802H978.832L974.229 481.799L994.441 477.869L986.584 545.802Z" fill="#D5CBCC"/>
<path d="M987.144 566.574C985.077 567.517 983.347 559.877 981.606 561.59C976.73 566.381 969.265 567.423 962.758 565.332L965.036 565.307C964.643 565.181 964.28 564.976 963.969 564.706C963.657 564.435 963.404 564.104 963.225 563.733C963.045 563.361 962.943 562.957 962.924 562.545C962.905 562.133 962.97 561.722 963.115 561.336V561.336C963.288 560.874 963.571 560.461 963.94 560.132C964.308 559.804 964.751 559.57 965.229 559.45L970.414 558.154L978.555 543.838L987.427 542.715L987.651 543.081C989.366 545.845 990.472 548.944 990.895 552.169C991.317 555.395 991.047 558.673 990.102 561.786C989.362 564.149 988.358 566.021 987.144 566.574Z" fill="#2F2E41"/>
<path d="M995.368 321.555C988.239 322.546 983.309 326.449 981.299 334.234L968.2 310.049C967.423 308.512 967.226 306.746 967.645 305.075C968.064 303.404 969.071 301.94 970.482 300.952V300.952C971.979 299.903 973.82 299.466 975.629 299.731C977.438 299.996 979.076 300.942 980.21 302.376L995.368 321.555Z" fill="#6C63FF"/>
<path d="M1009.1 475.062C977.246 489.153 944.652 490.887 911.406 481.799C923.546 434.712 937.882 392.136 937.793 357.161L970.356 354.354L975.37 362.302C987.265 381.161 995.476 402.104 999.568 424.022L1009.1 475.062Z" fill="#2F2E41"/>
<path d="M955.759 284.737C965.061 284.737 972.602 277.196 972.602 267.894C972.602 258.592 965.061 251.051 955.759 251.051C946.457 251.051 938.916 258.592 938.916 267.894C938.916 277.196 946.457 284.737 955.759 284.737Z" fill="#D4CBCC"/>
<path d="M974.286 297.65L953.513 298.773L950.145 280.245L966.987 277.439L974.286 297.65Z" fill="#A0616A"/>
<path d="M972.04 357.162L949.283 357.806L937.794 359.411C932.154 340.781 927.406 322.193 938.917 306.636L952.391 293.162L972.603 292.6L972.87 292.753C976.08 294.592 978.568 297.47 979.923 300.912C981.279 304.354 981.421 308.155 980.327 311.689C975.309 327.984 972.089 343.375 972.04 357.162Z" fill="#EFEEFF"/>
<path d="M937.231 409.375L935.817 428.668C935.742 429.701 935.295 430.673 934.56 431.403C933.825 432.133 932.851 432.573 931.818 432.642C931.222 432.682 930.624 432.597 930.063 432.393C929.502 432.189 928.99 431.87 928.559 431.457C928.127 431.044 927.787 430.546 927.559 429.994C927.332 429.442 927.221 428.849 927.236 428.252L927.685 409.375L941.723 356.038L942.284 323.475L958.004 322.914L956.881 360.53L937.231 409.375Z" fill="#D5CBCC"/>
<path d="M959.688 325.721C953.024 323.011 946.799 323.919 941.161 329.652L941.934 302.158C942.031 300.439 942.745 298.812 943.944 297.576C945.143 296.34 946.748 295.578 948.463 295.429V295.429C950.284 295.27 952.097 295.814 953.529 296.949C954.962 298.084 955.907 299.724 956.17 301.532L959.688 325.721Z" fill="white"/>
<path d="M991.409 342.845H939.758C951.807 310.938 955.693 281.255 939.758 255.824C940.031 248.185 949.828 241.566 957.437 242.295C966.422 243.159 978.497 249.762 980.178 258.631L991.409 342.845Z" fill="#2F2E41"/>
<path d="M826.798 240.892H824.442V176.353C824.442 166.446 820.506 156.945 813.502 149.94C806.497 142.935 796.996 139 787.089 139H650.353C640.446 139 630.945 142.935 623.94 149.94C616.935 156.945 613 166.446 613 176.353V530.421C613 540.328 616.935 549.829 623.94 556.834C630.945 563.839 640.446 567.774 650.353 567.774H787.089C791.994 567.774 796.851 566.808 801.383 564.931C805.915 563.054 810.032 560.302 813.501 556.834C816.969 553.365 819.721 549.247 821.598 544.716C823.475 540.184 824.441 535.327 824.441 530.421V286.832H826.798L826.798 240.892Z" fill="#3F3D56"/>
<path d="M788.596 148.717H770.745C771.566 150.729 771.879 152.913 771.658 155.075C771.437 157.237 770.687 159.311 769.475 161.115C768.263 162.919 766.626 164.397 764.708 165.42C762.79 166.442 760.651 166.977 758.477 166.977H680.141C677.968 166.977 675.828 166.443 673.91 165.421C671.992 164.399 670.355 162.921 669.143 161.117C667.93 159.313 667.18 157.239 666.958 155.077C666.737 152.915 667.05 150.732 667.871 148.719H651.202C643.804 148.719 636.708 151.658 631.477 156.89C626.246 162.121 623.307 169.217 623.307 176.615V530.162C623.307 537.56 626.246 544.655 631.477 549.887C636.708 555.118 643.804 558.057 651.202 558.057H788.594C795.992 558.057 803.087 555.118 808.319 549.887C813.55 544.655 816.489 537.56 816.489 530.162V176.612C816.489 169.214 813.55 162.119 808.319 156.887C803.087 151.656 795.992 148.717 788.594 148.717H788.596Z" fill="white"/>
<path d="M792.365 203.944H647.432V328.256H792.365V203.944Z" fill="#E6E6E6"/>
<path d="M690.441 354.179C696.298 354.179 701.046 349.431 701.046 343.575C701.046 337.718 696.298 332.97 690.441 332.97C684.584 332.97 679.836 337.718 679.836 343.575C679.836 349.431 684.584 354.179 690.441 354.179Z" fill="#6C63FF"/>
<path d="M695.744 342.691H691.325V338.272H689.557V342.691H685.139V344.458H689.557V348.877H691.325V344.458H695.744V342.691Z" fill="white"/>
<path d="M746.411 354.179C752.267 354.179 757.015 349.431 757.015 343.575C757.015 337.718 752.267 332.97 746.411 332.97C740.554 332.97 735.806 337.718 735.806 343.575C735.806 349.431 740.554 354.179 746.411 354.179Z" fill="#6C63FF"/>
<path d="M751.713 344.458V342.691H741.108V344.458H751.713Z" fill="white"/>
<path d="M725.304 219.448H713.85C713.448 219.448 713.061 219.608 712.777 219.892C712.492 220.177 712.332 220.563 712.332 220.966V225.993C712.332 226.396 712.492 226.782 712.777 227.067C713.061 227.352 713.448 227.512 713.85 227.512H715.749V235.044H723.408V227.512H725.306C725.709 227.512 726.095 227.352 726.379 227.067C726.664 226.782 726.824 226.396 726.824 225.993V220.966C726.824 220.563 726.664 220.177 726.379 219.892C726.095 219.608 725.709 219.448 725.306 219.448H725.304Z" fill="#6C63FF"/>
<path d="M736.776 265.456C729.762 255.193 726.176 242.973 726.532 230.548C726.538 230.261 726.445 229.982 726.268 229.756C726.091 229.531 725.842 229.373 725.563 229.31V227.138H713.466V229.28H713.3C712.971 229.281 712.656 229.413 712.424 229.646C712.192 229.879 712.062 230.194 712.062 230.523C712.062 230.553 712.063 230.583 712.066 230.613C713.019 243.897 709.801 255.81 702.412 266.351C701.987 266.957 701.769 267.684 701.793 268.424L703.115 309.338C703.148 310.25 703.531 311.115 704.185 311.752C704.839 312.388 705.714 312.748 706.627 312.755H733.987C734.91 312.748 735.793 312.38 736.45 311.731C737.106 311.082 737.483 310.202 737.5 309.279L738.01 269.555C738.025 268.097 737.595 266.669 736.777 265.462L736.776 265.456Z" fill="#3F3D56"/>
<path opacity="0.2" d="M722.917 221.086C722.922 221.52 722.842 221.95 722.68 222.353C722.518 222.755 722.278 223.122 721.973 223.431C721.668 223.74 721.305 223.985 720.904 224.152C720.504 224.32 720.075 224.406 719.641 224.406C719.207 224.406 718.777 224.32 718.377 224.152C717.976 223.985 717.613 223.74 717.308 223.431C717.004 223.122 716.763 222.755 716.601 222.353C716.439 221.95 716.359 221.52 716.365 221.086" fill="black"/>
<path d="M732.445 279.047H729.132C728.816 276.994 727.776 275.123 726.199 273.771C724.623 272.419 722.615 271.675 720.538 271.675C718.461 271.675 716.453 272.419 714.877 273.771C713.3 275.123 712.26 276.994 711.944 279.047H708.63C708.278 279.047 707.93 279.124 707.61 279.271C707.289 279.418 707.005 279.633 706.776 279.9C706.546 280.168 706.377 280.482 706.28 280.821C706.184 281.16 706.161 281.515 706.215 281.864L709.814 305.253H730.478L734.849 281.94C734.915 281.587 734.902 281.224 734.812 280.876C734.722 280.528 734.556 280.205 734.327 279.928C734.098 279.652 733.81 279.429 733.485 279.277C733.16 279.124 732.805 279.045 732.445 279.045L732.445 279.047Z" fill="#6C63FF"/>
<path d="M792.365 378.924H647.432V503.236H792.365V378.924Z" fill="#E6E6E6"/>
<path d="M690.441 529.159C696.298 529.159 701.046 524.411 701.046 518.555C701.046 512.698 696.298 507.95 690.441 507.95C684.584 507.95 679.836 512.698 679.836 518.555C679.836 524.411 684.584 529.159 690.441 529.159Z" fill="#6C63FF"/>
<path d="M695.744 517.671H691.325V513.252H689.557V517.671H685.139V519.438H689.557V523.857H691.325V519.438H695.744V517.671Z" fill="white"/>
<path d="M746.411 529.159C752.267 529.159 757.015 524.411 757.015 518.555C757.015 512.698 752.267 507.95 746.411 507.95C740.554 507.95 735.806 512.698 735.806 518.555C735.806 524.411 740.554 529.159 746.411 529.159Z" fill="#6C63FF"/>
<path d="M751.713 519.438V517.671H741.108V519.438H751.713Z" fill="white"/>
<path d="M748.43 467.237H748.51C751.239 467.26 753.911 466.46 756.179 464.941C758.446 463.423 760.203 461.256 761.22 458.724C764.426 450.618 765.177 441.747 763.379 433.218C761.581 424.688 757.314 416.875 751.109 410.753C744.903 404.631 737.034 400.469 728.481 398.786C719.928 397.103 711.069 397.973 703.006 401.288C694.944 404.603 688.035 410.216 683.139 417.429C678.244 424.641 675.578 433.135 675.474 441.851C675.37 450.568 677.832 459.123 682.554 466.45C687.276 473.778 694.049 479.554 702.03 483.061C704.51 484.159 707.264 484.483 709.932 483.989C712.599 483.494 715.055 482.206 716.977 480.292C721.099 476.148 726 472.861 731.399 470.621C736.797 468.38 742.585 467.231 748.43 467.238V467.237Z" fill="white"/>
<path d="M725.605 453.787C733.709 453.787 740.279 447.217 740.279 439.113C740.279 431.009 733.709 424.439 725.605 424.439C717.501 424.439 710.932 431.009 710.932 439.113C710.932 447.217 717.501 453.787 725.605 453.787Z" fill="#F9A825"/>
</svg>
