<svg width="1125" height="706" viewBox="0 0 1125 706" fill="none" xmlns="http://www.w3.org/2000/svg">
<path d="M93.856 382.96C112.288 382.96 121.024 373.744 121.024 362.992C121.024 338.32 81.184 347.632 81.184 333.328C81.184 328.24 85.408 324.208 95.776 324.208C101.632 324.208 108.256 325.936 114.304 329.488L118.24 319.792C112.384 315.952 103.936 313.84 95.872 313.84C77.44 313.84 68.8 323.056 68.8 333.904C68.8 358.864 108.736 349.36 108.736 363.856C108.736 368.848 104.32 372.592 93.856 372.592C85.6 372.592 77.056 369.52 71.68 365.2L67.36 374.896C72.928 379.696 83.392 382.96 93.856 382.96ZM138.295 322.288C142.807 322.288 145.975 319.024 145.975 314.8C145.975 310.864 142.711 307.888 138.295 307.888C133.879 307.888 130.615 311.056 130.615 315.088C130.615 319.12 133.879 322.288 138.295 322.288ZM132.247 382H144.247V330.736H132.247V382ZM199.453 330.736V337.552C195.229 332.464 188.893 330.16 181.693 330.16C167.005 330.16 155.773 339.952 155.773 354.832C155.773 369.712 167.005 379.696 181.693 379.696C188.605 379.696 194.653 377.488 198.877 372.88V375.568C198.877 385.936 193.885 391.12 182.557 391.12C175.453 391.12 168.157 388.72 163.645 384.976L158.269 394C164.125 398.8 173.629 401.296 183.229 401.296C201.181 401.296 210.877 392.848 210.877 374.224V330.736H199.453ZM183.517 369.52C174.397 369.52 167.869 363.568 167.869 354.832C167.869 346.192 174.397 340.336 183.517 340.336C192.541 340.336 199.069 346.192 199.069 354.832C199.069 363.568 192.541 369.52 183.517 369.52ZM255.741 330.16C248.253 330.16 242.013 332.656 238.077 337.36V330.736H226.653V382H238.653V356.08C238.653 345.808 244.413 340.624 252.957 340.624C260.637 340.624 265.149 345.04 265.149 354.16V382H277.149V352.624C277.149 337.168 268.029 330.16 255.741 330.16ZM348.951 382.96C367.287 382.96 378.327 372.304 378.327 352.72V314.8H366.039V352.24C366.039 366.064 359.895 372.016 349.047 372.016C338.199 372.016 331.959 366.064 331.959 352.24V314.8H319.479V352.72C319.479 372.304 330.519 382.96 348.951 382.96ZM423.069 330.16C416.061 330.16 410.109 332.56 406.077 337.456V330.736H394.653V400.624H406.653V375.76C410.781 380.464 416.541 382.672 423.069 382.672C438.045 382.672 449.085 372.304 449.085 356.368C449.085 340.528 438.045 330.16 423.069 330.16ZM421.725 372.4C413.085 372.4 406.461 366.16 406.461 356.368C406.461 346.576 413.085 340.336 421.725 340.336C430.365 340.336 436.893 346.576 436.893 356.368C436.893 366.16 430.365 372.4 421.725 372.4Z" fill="white"/>
<g clip-path="url(#clip0)">
<path d="M657.369 460.261L652.299 440.26C643.308 436.449 634.109 433.148 624.747 430.374L624.106 439.669L621.51 429.428C609.899 426.113 602 424.652 602 424.652C602 424.652 612.67 465.23 635.049 496.252L661.125 500.833L640.867 503.754C643.684 507.142 646.71 510.35 649.929 513.358C682.484 543.58 718.745 557.445 730.919 544.328C743.093 531.211 726.571 496.078 694.016 465.857C683.923 456.488 671.245 448.97 658.554 443.053L657.369 460.261Z" fill="#E6E6E6"/>
<path d="M705.594 438.54L711.592 418.797C705.864 410.887 699.696 403.306 693.115 396.091L687.763 403.717L690.833 393.609C682.608 384.768 676.6 379.434 676.6 379.434C676.6 379.434 664.762 419.686 667.885 457.812L687.84 475.213L668.989 467.242C669.648 471.598 670.581 475.908 671.782 480.148C684.031 522.848 707.905 553.462 725.106 548.527C742.308 543.592 746.322 504.976 734.073 462.275C730.276 449.038 723.309 436.048 715.503 424.422L705.594 438.54Z" fill="#E6E6E6"/>
<path d="M991.082 519.295L994.855 515.22C994.398 512.631 993.796 510.07 993.05 507.549L990.858 508.766L992.79 506.68C991.837 503.572 991.01 501.574 991.01 501.574C991.01 501.574 983.411 509.929 979.685 519.528L982.472 526.088L978.844 521.941C978.492 523.073 978.211 524.226 978.003 525.394C975.949 537.174 978.131 547.394 982.876 548.221C987.622 549.049 993.133 540.171 995.187 528.391C995.752 524.628 995.736 520.8 995.141 517.042L991.082 519.295Z" fill="#E6E6E6"/>
<path d="M1046.9 527.355L1052.24 525.817C1053.19 523.364 1053.99 520.861 1054.66 518.317L1052.15 518.226L1054.88 517.439C1055.68 514.286 1056 512.148 1056 512.148C1056 512.148 1045.18 515.371 1037.03 521.662L1036.02 528.718L1035.06 523.293C1034.17 524.08 1033.34 524.923 1032.55 525.815C1024.71 534.837 1021.29 544.714 1024.93 547.875C1028.56 551.037 1037.87 546.286 1045.72 537.264C1048.14 534.334 1050.11 531.049 1051.54 527.524L1046.9 527.355Z" fill="#E6E6E6"/>
<path d="M897.725 171.546V520.729C897.724 528.034 894.821 535.04 889.656 540.205C884.491 545.371 877.486 548.273 870.182 548.275H734.499C727.193 548.276 720.185 545.374 715.018 540.209C709.851 535.043 706.946 528.036 706.944 520.729V171.546C706.946 164.239 709.851 157.232 715.018 152.066C720.185 146.901 727.193 143.999 734.499 144H750.958C750.15 145.988 749.843 148.144 750.063 150.278C750.283 152.412 751.023 154.46 752.22 156.241C753.417 158.022 755.033 159.482 756.926 160.492C758.818 161.502 760.93 162.032 763.076 162.035H840.433C842.579 162.032 844.691 161.502 846.584 160.492C848.477 159.482 850.093 158.022 851.289 156.241C852.486 154.46 853.227 152.412 853.447 150.278C853.667 148.144 853.359 145.988 852.551 144H870.182C877.486 144.001 884.491 146.904 889.656 152.07C894.821 157.235 897.724 164.241 897.725 171.546V171.546Z" fill="#3F3D56"/>
<path d="M783.217 288.622C783.217 286.229 783.846 283.879 785.042 281.808C786.238 279.736 787.959 278.016 790.031 276.821C787.959 275.624 785.609 274.994 783.217 274.993C780.824 274.993 778.474 275.622 776.402 276.818C774.33 278.014 772.609 279.735 771.413 281.807C770.217 283.879 769.587 286.229 769.587 288.622C769.587 291.014 770.217 293.365 771.413 295.437C772.609 297.509 774.33 299.229 776.402 300.425C778.474 301.621 780.824 302.25 783.217 302.25C785.609 302.249 787.959 301.619 790.031 300.422C787.959 299.227 786.238 297.507 785.042 295.435C783.846 293.364 783.217 291.014 783.217 288.622V288.622Z" fill="white"/>
<path d="M800.348 288.622C800.348 286.229 800.977 283.879 802.173 281.808C803.369 279.736 805.09 278.016 807.162 276.821C805.09 275.624 802.74 274.994 800.348 274.993C797.955 274.993 795.605 275.622 793.533 276.818C791.461 278.014 789.74 279.735 788.544 281.807C787.348 283.879 786.718 286.229 786.718 288.622C786.718 291.014 787.348 293.365 788.544 295.437C789.74 297.509 791.461 299.229 793.533 300.425C795.605 301.621 797.955 302.25 800.348 302.25C802.74 302.249 805.09 301.619 807.162 300.422C805.09 299.227 803.369 297.507 802.173 295.435C800.977 293.364 800.348 291.014 800.348 288.622V288.622Z" fill="white"/>
<path d="M817.09 302.25C824.616 302.25 830.717 296.148 830.717 288.622C830.717 281.095 824.616 274.993 817.09 274.993C809.564 274.993 803.463 281.095 803.463 288.622C803.463 296.148 809.564 302.25 817.09 302.25Z" fill="#536DFE"/>
<path d="M863.3 377.813H741.493V378.953H863.3V377.813Z" fill="white"/>
<path d="M745.341 370.689C747.465 370.689 749.187 368.967 749.187 366.842C749.187 364.718 747.465 362.995 745.341 362.995C743.216 362.995 741.494 364.718 741.494 366.842C741.494 368.967 743.216 370.689 745.341 370.689Z" fill="#536DFE"/>
<path d="M863.3 416.282H741.493V417.423H863.3V416.282Z" fill="white"/>
<path d="M745.341 409.158C747.465 409.158 749.187 407.436 749.187 405.311C749.187 403.187 747.465 401.464 745.341 401.464C743.216 401.464 741.494 403.187 741.494 405.311C741.494 407.436 743.216 409.158 745.341 409.158Z" fill="#536DFE"/>
<path d="M839.863 331.188H760.444C759.687 331.187 758.963 330.886 758.428 330.351C757.893 329.817 757.593 329.092 757.592 328.336V248.908C757.593 248.152 757.893 247.427 758.428 246.892C758.963 246.358 759.687 246.057 760.444 246.056H839.863C840.619 246.057 841.344 246.358 841.879 246.892C842.414 247.427 842.714 248.152 842.715 248.908V328.336C842.714 329.092 842.414 329.817 841.879 330.351C841.344 330.886 840.619 331.187 839.863 331.188V331.188ZM760.444 247.197C759.99 247.197 759.555 247.378 759.234 247.698C758.913 248.019 758.733 248.454 758.733 248.908V328.336C758.733 328.789 758.913 329.224 759.234 329.545C759.555 329.866 759.99 330.046 760.444 330.047H839.863C840.317 330.046 840.752 329.866 841.073 329.545C841.394 329.224 841.574 328.789 841.574 328.336V248.908C841.574 248.454 841.394 248.019 841.073 247.698C840.752 247.378 840.317 247.197 839.863 247.197H760.444Z" fill="white"/>
<path d="M861.019 441.857H822.629C821.369 441.857 820.348 442.878 820.348 444.139V457.528C820.348 458.788 821.369 459.809 822.629 459.809H861.019C862.279 459.809 863.301 458.788 863.301 457.528V444.139C863.301 442.878 862.279 441.857 861.019 441.857Z" fill="#536DFE"/>
<path d="M1056 547.716H602.453V548.857H1056V547.716Z" fill="#3F3D56"/>
<path d="M969.604 329.429C969.604 329.429 968.025 339.43 969.604 341.009C971.182 342.588 959.604 355.747 959.604 355.747L950.13 342.588C950.13 342.588 954.34 335.745 952.761 329.955L969.604 329.429Z" fill="#FFB8B8"/>
<path d="M934.869 404.699L928.024 477.863L930.654 534.711L943.285 531.026L943.814 479.969L958.552 435.755L967.498 483.655L966.443 532.08L982.233 532.607L983.287 478.918L985.137 403.932L934.869 404.699Z" fill="#2F2E41"/>
<path d="M966.972 530.501V542.081C966.972 542.081 964.341 550.503 972.762 549.976C981.183 549.45 980.656 545.765 980.656 545.765L977.499 531.554L966.972 530.501Z" fill="#2F2E41"/>
<path d="M942.761 530.501V542.081C942.761 542.081 945.393 550.503 936.972 549.976C928.551 549.45 929.077 545.765 929.077 545.765L932.235 531.554L942.761 530.501Z" fill="#2F2E41"/>
<path d="M960.656 335.219C967.342 335.219 972.761 329.799 972.761 323.113C972.761 316.427 967.342 311.006 960.656 311.006C953.97 311.006 948.551 316.427 948.551 323.113C948.551 329.799 953.97 335.219 960.656 335.219Z" fill="#FFB8B8"/>
<path d="M960.13 349.957L961.183 344.694H963.815L968.904 337.373L973.288 341.536L974.341 366.275H945.92L948.551 339.956L952.384 337.373C952.384 337.373 951.709 346.273 959.078 346.273L960.13 349.957Z" fill="#575A89"/>
<path d="M949.078 344.167C949.078 344.167 953.436 349.686 959.941 349.295C966.446 348.905 972.762 343.641 972.762 343.641L981.709 412.069C981.709 412.069 971.709 413.121 968.551 407.858L944.341 407.331L944.867 343.641L949.078 344.167Z" fill="#D0CDE1"/>
<path d="M952.63 336.465L929.604 347.852L935.393 380.487C935.393 380.487 937.498 392.593 935.393 397.33C933.288 402.068 931.182 433.65 931.182 433.65C931.182 433.65 954.867 436.281 951.709 398.909C948.551 361.537 952.63 336.465 952.63 336.465Z" fill="#2F2E41"/>
<path d="M938.551 415.227L941.709 418.385C941.709 418.385 951.182 434.702 955.393 428.912C959.603 423.122 948.024 413.121 948.024 413.121L942.761 408.91L938.551 415.227Z" fill="#FFB8B8"/>
<path d="M968.915 336.465L991.709 347.852L983.814 386.803C983.814 386.803 984.34 399.436 986.972 406.278C989.603 413.121 988.551 433.123 988.551 433.123C988.551 433.123 985.393 445.229 978.551 415.227C971.709 385.224 968.915 336.465 968.915 336.465Z" fill="#2F2E41"/>
<path d="M986.446 396.278H981.709C981.709 396.278 965.92 394.172 966.972 400.488C968.025 406.805 982.762 405.226 982.762 405.226L988.551 404.699L986.446 396.278Z" fill="#FFB8B8"/>
<path d="M932.761 346.273L929.077 347.852C929.077 347.852 925.393 355.747 924.866 358.379C924.34 361.011 918.024 392.593 919.603 396.278C921.182 399.962 936.972 419.438 936.972 419.438L945.919 409.963L932.761 392.067L936.445 369.433L932.761 346.273Z" fill="#2F2E41"/>
<path d="M983.814 346.799L990.778 347.387L992.235 347.852C992.235 347.852 1006.97 387.856 1003.81 394.172C1000.66 400.488 986.972 412.069 986.972 412.069L983.288 395.751L990.13 389.435L983.288 368.38L983.814 346.799Z" fill="#2F2E41"/>
<path d="M970.898 313.778C970.898 313.778 974.065 307.835 967.098 307.294C967.098 307.294 960.764 303.512 955.697 307.835C955.697 307.835 951.264 306.754 949.997 309.996C949.997 309.996 949.363 308.375 951.264 307.294C951.264 307.294 946.83 306.214 946.83 311.617C946.83 311.617 944.93 317.019 946.83 321.882C948.73 326.745 949.363 327.285 949.363 327.285C949.363 327.285 946.241 317.09 953.841 316.55C961.442 316.01 969.948 311.346 970.581 317.29C971.215 323.233 972.482 324.854 972.482 324.854C972.482 324.854 978.182 316.209 970.898 313.778Z" fill="#2F2E41"/>
</g>
<defs>
<clipPath id="clip0">
<rect x="602" y="144" width="454" height="406" fill="white"/>
</clipPath>
</defs>
</svg>
